# xmcd CD database file
#
# Track frame offsets:
#	150
#	20355
#	36775
#	57587
#	82352
#	102327
#	119692
#	137125
#	147162
#	169542
#
# Disc length: 2698 seconds
#
# Revision: 3
# Processed by: cddbd v1.5PL3 Copyright (c) Steve Scherf et al.
# Submitted via: CDex 1.51
#
DISCID=900a880a
DTITLE=KING'S X - Please Come Home... Mr. Bulbous
DYEAR=2000
DGENRE=Hard Rock
TTITLE0=Fish Bowl Man
TTITLE1=Julia
TTITLE2=She's Gone Away
TTITLE3=Marsh Mellow Field
TTITLE4=When You're Scared
TTITLE5=Charlie Sheen
TTITLE6=Smudge
TTITLE7=Bitter Sweet
TTITLE8=Move Me
TTITLE9=Move Me (Part Two)
EXTD=YEAR: 2000
EXTT0=
EXTT1=
EXTT2=
EXTT3=
EXTT4=
EXTT5=
EXTT6=
EXTT7=
EXTT8=
EXTT9=
PLAYORDER=
